<?xml version="1.0" encoding="utf-8"?>
<!-- Generator: Adobe Illustrator 19.2.1, SVG Export Plug-In . SVG Version: 6.00 Build 0)  -->
<svg version="1.1" id="Слой_1" xmlns="http://www.w3.org/2000/svg"  x="0px" y="0px"
	 viewBox="0 0 250 100" style="enable-background:new 0 0 250 100;" xml:space="preserve">
<style type="text/css">
	.st0{fill:#FFFFFF;}
</style>
<g>
	<path class="st0" d="M114.9,21.6c0.7,0.2,0.9,0.3,1.1,0.4c6.5,2.4,8.9,8.1,8.6,14.6c-0.5,10.1-7.9,19.6-17.6,22.5
		c-4,1.2-8.2,1.4-12.3,0.5c-8.1-1.9-10.7-7.4-10.6-14c0.2-10.1,6.3-19.6,16.1-23.1c2.4-0.8,5-1.3,7.6-1.3c1.2,0,2.5,0,3.7-0.1
		c1.6-0.4,3.1-0.8,4.7-1.3c15.8-5.1,31.8-9.1,48.2-11.5c10.9-1.6,21.8-2.6,32.8-1.5c5.5,0.5,10.9,1.4,15.8,4
		c3.4,1.8,6.1,4.3,6.3,8.3c0.1,2.2-0.5,4.6-1.3,6.8c-0.8,2.1-2.7,5.1-4.6,6.6c-0.1,0.1-0.1,0-0.2-0.1c0.1-0.2,0.6-0.7,1.1-1.4
		c0.6-0.8,0.9-1.6,1.1-2c1.7-4.3,1.1-9.4-4.1-12.8c-4.4-2.9-9.5-4.1-14.6-4.8c-11.7-1.7-23.5-1.1-35.2,0.3c-15,1.7-29.6,5-44,9.2
		C116.9,20.8,115.8,21.3,114.9,21.6z M115.1,37.6c0-5.7-4.1-9.2-9.7-8.2c-6.7,1.1-11.5,7.1-11.6,14.3c0,5.9,4.1,9.4,10,8.2
		C110.3,50.7,115.1,44.6,115.1,37.6z"/>
	<path class="st0" d="M165.5,31.6c-2.6,1.3-5.2,2.5-7.6,3.6c-0.2-0.2-0.4-0.2-0.4-0.3c-2-4.7-5-6.5-10-6c-11,1.1-13.8,12.3-11,18.8
		c1.7,3.8,5,5.4,9.1,4.3c3.3-0.9,5.8-2.8,8.3-5c0.4-0.4,0.8-0.7,1.4-1.2c2.2,1.4,4.3,2.7,6.7,4.2c-4.6,5.2-9.8,8.9-16.6,9.9
		c-2.5,0.3-5.1,0.5-7.5,0.1c-6.4-1-10.4-5.7-11.4-12.1c-1.6-11,5.3-24.8,21.1-27.2c7.2-1.1,14.2,2.6,17.3,9.1
		C165.1,30.3,165.3,30.9,165.5,31.6z"/>
	<path class="st0" d="M205.6,51.9c-6.4,0-11.6-5-11.6-11.3c-0.1-6.4,5-11.5,11.4-11.6c6.6,0,11.7,5,11.7,11.4
		C217.1,46.8,212,51.9,205.6,51.9z M208.2,49.7c1.3-5,2.8-10.4,4.4-16.2c-5.8,1.5-11.2,2.9-17.1,4.5C200,42.1,204.1,45.8,208.2,49.7
		z"/>
</g>
<path class="st0" d="M72.4,55.8c-0.8-2.5-1-3.2-2.4-7.6c-2.2,3.1-4.2,5.7-6,8.5c-0.8,1.3-0.6,0.9-1.1,1.7c-3.1-0.1-8.2-0.1-11.7-0.1
	c3.8-4.7,8-9.8,11.8-14.4c-1,0.5-1.2,0.6-1.5,0.8c-5.6,3.8-10.8,8-14.7,13.6c-1.9,2.8-3.3,5.8-2.6,9.3c0.5,2.9,2.4,4.9,4.8,6.5
	c4.2,2.8,8.9,4,13.8,4.8c10.2,1.6,20.5,1.4,30.8,0.4c26.9-2.5,52.7-9.5,77.7-19.7c0.5-0.2,0.9-0.4,1.3-0.6c0.1,0,0.4-0.2,0.8-0.5
	c-1.4,0-3.1,0-4.6,0c2-9.7,4-19.2,6.1-28.9c-2.3,0-4.6,0-7.1,0c0.7-3.2,1.3-6.2,1.9-9.2c7.7,0,15.3,0,23.1,0c-0.6,3-1.1,5.9-1.7,8.8
	c-2.2,0-5.5-0.1-7.5,0c-0.1,0.4-0.1,0.5-0.2,1c-1.7,8.3-3.3,16.6-4.9,24.9c-0.1,0.3-0.1,0.8-0.2,1.4c4.7-2.4,13.6-7.6,18.1-9.9
	c0.1,0.1,0.3,0.4,0.4,0.4c-0.6,0.4-5.5,3.2-6.1,3.6c-17.8,11-36.9,19.4-56.7,26.3c-14.4,5-29.1,9.3-44.1,12
	c-8.6,1.6-17.2,2.7-25.9,3.4c-6.7,0.5-13.5,0.3-20.3,0c-5.1-0.3-10.1-1.4-14.6-4c-5.9-3.3-7.6-8.5-5-14.7c2.2-5,5.8-9,9.7-12.6
	c9.2-8.6,19.8-15.1,30.9-21c1-0.6,1.1-0.6,1.8-1c-0.2-0.6-0.4-1.2-0.7-1.9c-2.1-4.8-4-9.8-6-14.7c-0.2-0.5-0.5-1.3-0.8-2.1
	c3.7,0,7.6,0,11.1,0c0.1,0.3,0.4,1.2,0.6,1.7c0.9,2.7,1.8,5.4,2.8,8.5c2.2-2.9,5.4-7.4,7.4-10.1c0.5,0,0.7,0,2.3,0
	c3.2,0,6.1,0,9.5,0c-1.8,2.2-3.5,4.2-5.1,6.2c-3.3,3.9-6.5,7.9-9.9,11.8c-0.3,0.4-0.6,0.7-0.8,0.9c0.1,0.3,0.3,0.7,0.6,1.6
	c2,5.1,4,10.3,6,15.4c0.2,0.5,0.4,1,0.7,1.9c-2.9,0-10.2-0.2-11.1-0.2L72.4,55.8z"/>
</svg>
